<svg viewBox="0 0 200 200" xmlns="http://www.w3.org/2000/svg">
  <path fill="#c4c9fd" d="M39.1,-72.8C46.9,-63.2,46.8,-45.1,48.1,-31.5C49.4,-18,52.1,-9,53.4,0.8C54.8,10.5,54.7,21,51.8,31.9C48.9,42.8,43.3,54.1,34.2,57.9C25.1,61.8,12.6,58.3,0.1,58.2C-12.5,58.1,-24.9,61.4,-39.1,60.5C-53.3,59.5,-69.1,54.3,-75.2,43.5C-81.3,32.7,-77.5,16.4,-71.2,3.6C-64.9,-9.1,-56,-18.2,-48,-25.5C-39.9,-32.7,-32.6,-38.2,-24.7,-47.8C-16.8,-57.3,-8.4,-70.9,3.6,-77.2C15.7,-83.5,31.3,-82.4,39.1,-72.8Z" transform="translate(100 100)" />
</svg>