<svg xmlns="http://www.w3.org/2000/svg" version="1.1" xmlns:xlink="http://www.w3.org/1999/xlink" xmlns:svgjs="http://svgjs.dev/svgjs" viewBox="0 0 2400 800" opacity="1" width="100%" height="100%"><g fill="hsla(0, 0%, 100%, 1)" transform="matrix(1,0,0,1,4.3314208984375,344.02748107910156)"><path d="M-10,10C92.08333333333334,17.083333333333336,277.9166666666667,59.83333333333333,480,44C682.0833333333333,28.166666666666668,760,-63.291666666666664,960,-66C1160,-68.70833333333333,1240,29.541666666666668,1440,31C1640,32.458333333333336,1720,-65.66666666666667,1920,-59C2120,-52.333333333333336,2247.9166666666665,-32.625,2400,63C2552.0833333333335,158.625,3254.1666666666665,225.625,2650,400C2045.8333333333335,574.375,156.25,795.8333333333334,-500,900" transform="matrix(1,0,0,1,0,26)" opacity="0.05"></path><path d="M-10,10C92.08333333333334,17.083333333333336,277.9166666666667,59.83333333333333,480,44C682.0833333333333,28.166666666666668,760,-63.291666666666664,960,-66C1160,-68.70833333333333,1240,29.541666666666668,1440,31C1640,32.458333333333336,1720,-65.66666666666667,1920,-59C2120,-52.333333333333336,2247.9166666666665,-32.625,2400,63C2552.0833333333335,158.625,3254.1666666666665,225.625,2650,400C2045.8333333333335,574.375,156.25,795.8333333333334,-500,900" transform="matrix(1,0,0,1,0,52)" opacity="1.00"></path></g></svg>